<?xml version="1.0" encoding="UTF-8"?>
<svg xmlns="http://www.w3.org/2000/svg" viewBox="0 0 488.02 383.37">
  <g id="Layer_1" data-name="Layer 1"/>
  <g id="Layer_2" data-name="Layer 2">
    <g id="Layer_1-2" data-name="Layer 1">
      <g>
        <path d="M487.98,242.17c0,37.46,.03,74.91-.01,112.37-.02,17.48-11.3,28.78-28.8,28.8-56.07,.05-112.14,.03-168.22,.03-18.32,0-29.62-11.05-29.84-29.29-.09-7.44,.11-14.89,.11-22.33,0-1.07-.38-2.14-.58-3.21-.88,.4-1.84,.68-2.64,1.2-18.22,11.95-38.25,18.94-59.76,21.9-29.43,4.05-58.24,1.68-86.19-8.64-25.89-9.56-47.75-25.08-66.17-45.58-20.31-22.6-34.02-48.64-41.01-78.17C-.13,198.22-.91,176.92,.87,155.44,3.83,119.85,16.93,88.4,39.58,60.99,60.21,36.02,86.33,18.9,117.02,8.72,142.93,.14,169.36-1.99,196.4,1.81c31.12,4.38,59.32,15.72,84.37,34.69,20.38,15.43,36.24,34.73,48.02,57.37,1.37,2.64,2.86,3.71,5.92,3.7,40.84-.09,81.68-.07,122.52-.03,14.58,.01,26.69,9.28,29.72,22.87,.75,3.38,1.02,6.93,1.02,10.4,.07,37.12,.04,74.24,.04,111.35h-.04Zm-205.11-1.12h.02c0,35.75,.17,71.51-.11,107.26-.07,9.11,3.72,13.97,14.06,13.92,52.45-.24,104.89-.11,157.34-.1,8.96,0,12.58-3.67,12.58-12.8,0-71.85,0-143.69-.01-215.54,0-1.24,.05-2.49-.07-3.72-.52-5.54-4.54-9.35-10.08-9.36-54.7-.03-109.41-.02-164.11,0-4.49,0-8.03,2.67-9.13,7.05-.46,1.82-.46,3.79-.47,5.69-.02,35.87-.02,71.73-.02,107.6ZM137.38,95.8c-10.9,.61-21.88,.67-32.7,1.98-14.38,1.74-28.66,4.31-42.93,6.83-5.03,.89-9.31,3.65-11.57,8.5-2.7,5.78-2.19,11.43,1.86,16.49,4.28,5.35,10.16,5.65,16.31,4.76,14.68-2.13,29.3-4.95,44.05-6.26,21.48-1.91,43-1.02,64.42,1.73,28.6,3.67,55.97,11.38,81.57,24.86,1.88,.99,2.77,1.22,2.73-1.48-.12-7.67-.16-15.34,.01-23,.12-5.56-2.36-9.25-7.32-11.37-5.59-2.38-11.14-4.88-16.85-6.93-32.17-11.56-65.5-15.91-99.57-16.11Zm-.17,57.46c-12.55,1.14-25.16,1.84-37.63,3.56-9.55,1.31-18.97,3.7-28.34,6.01-6.44,1.59-10.7,5.92-11.63,12.63-1.39,10,6.98,16.45,17.41,14.47,13.46-2.55,27-5,40.61-6.33,15.93-1.55,31.94-.79,47.89,1.03,25.64,2.93,50.07,9.92,73.3,21.11,4.26,2.05,8.31,4.53,12.6,6.5,5.61,2.58,9.39,.14,9.59-5.96,.09-2.82,.04-5.64,.06-8.46q.09-12.06-10.75-17.53c-35.53-18.03-73.36-26.2-113.11-27.05Zm-.79,56.84c-11.22,.92-22.49,1.41-33.63,2.89-8.44,1.13-16.78,3.26-25.03,5.45-5.43,1.44-8.88,5.37-9.38,11.17-.75,8.73,7.14,14.62,16.12,12.21,20.35-5.46,40.93-8.29,62.11-7.18,23.79,1.25,46.56,6.34,68.42,15.67,6,2.56,11.87,5.48,17.99,7.71,5.22,1.9,11.2-.93,13.47-5.67,2.33-4.86,.84-10.26-3.93-13.67-1.83-1.31-3.79-2.45-5.78-3.49-31.46-16.28-64.83-24.74-100.37-25.09Z" fill="#fff"/>
        <path d="M381.06,279.28c0,9.47,.09,18.95-.02,28.42-.14,11.05-9.23,17.78-19.86,14.83-5.09-1.41-8.56-5.3-8.83-9.9-.32-5.39,2.54-9.94,7.62-11.93,2.82-1.11,5.79-1.89,8.5-3.22,1.02-.5,2.1-2.11,2.12-3.24,.17-9.02,.05-18.04,.11-27.06,.02-2.2-.71-2.42-2.62-1.69-7.14,2.73-14.31,5.42-21.53,7.95-2.33,.81-2.65,2.29-2.64,4.4,.04,15.34,.09,30.67-.03,46.01-.09,11.9-11.51,19.93-22.88,16.27-7.87-2.53-11.93-9.76-10.56-18.8,.93-6.16,7.58-11.18,14.93-11.28q8.13-.1,8.12-8.07c0-12.85-.02-25.71,0-38.56,0-8.07,2.16-11.08,9.71-13.79,8.05-2.89,16.18-5.57,24.1-8.78,7.43-3.02,13.86,1.47,13.78,9.72-.1,9.58-.02,19.17-.02,28.75h.02Z" fill="#fff"/>
        <path d="M375.71,176.88c-18.94,0-37.88,.04-56.83-.02-8.55-.03-13.66-6.72-11.17-14.4,1.57-4.83,5.47-7.25,11.7-7.24,16.8,.01,33.6,.04,50.4,.04,20.74,0,41.49,.03,62.23-.02,4.68-.01,8.37,1.54,10.62,5.8,2.09,3.96,1.75,7.85-.77,11.48-2.15,3.1-5.24,4.39-9.02,4.38-19.05-.04-38.11-.02-57.16-.02Z" fill="#fff"/>
        <path d="M375.53,197.58c19.29,0,38.58-.03,57.87,.02,5.41,.01,9.27,3.37,10.41,8.8,.87,4.13-1.72,9.34-5.89,11.14-1.8,.78-3.91,1.21-5.88,1.21-37.91,.07-75.81,.07-113.72,.03-5.99,0-10.27-3.67-11.2-9.27-.8-4.81,1.9-9.64,6.58-11.31,1.54-.55,3.3-.62,4.96-.62,18.95-.04,37.91-.03,56.86-.03v.02Z" fill="#fff"/>
        <path d="M419.2,260.22c-4.28,0-8.58-.25-12.84,.06-6.96,.51-11.07-5.7-11.3-10.16-.3-5.67,4.27-10.87,10.44-11.06,9.23-.29,18.47-.24,27.7,.02,5.58,.16,8.84,2.95,10.26,7.72,1.24,4.19,.06,8.52-3.58,11.07-1.74,1.22-4.03,1.89-6.17,2.23-2.42,.38-4.94,.12-7.42,.12-2.37,0-4.73,0-7.1,0Z" fill="#fff"/>
        <path d="M419.87,281.47c4.17,0,8.35-.04,12.52,0,6.61,.08,11.32,4.29,11.6,10.31,.28,5.93-4.26,10.7-10.98,10.88-9.13,.24-18.27,.09-27.41,.06-.77,0-1.55-.24-2.32-.43-5.2-1.29-8.73-5.98-8.22-10.87,.57-5.47,4.84-9.71,10.25-9.89,4.84-.15,9.7-.03,14.55-.03v-.04Z" fill="#fff"/>
      </g>
    </g>
  </g>
</svg>